<svg xmlns="http://www.w3.org/2000/svg" xmlns:xlink="http://www.w3.org/1999/xlink" viewBox="0 0 625 625" xmlns:v="https://vecta.io/nano"><linearGradient id="A" gradientUnits="userSpaceOnUse" x1="0" y1="312.5" x2="625" y2="312.5"><stop offset="0" stop-color="#efefef"/><stop offset="1" stop-color="#dadada"/></linearGradient><circle cx="312.5" cy="312.5" r="312.5" fill="url(#A)"/><defs><path id="B" d="M155.5 154.8h313.9v315.4H155.5z"/></defs><clipPath id="C"><use xlink:href="#B"/></clipPath><path d="M427.4 346.8c-2.5-1.5-5.7-.6-7.2 1.9l-60.1 102.5c-4.3 7.5-14 10.1-21.2 5.9l-11.7-7.6c-2.4-1.6-5.7-.9-7.2 1.5-1.6 2.4-.9 5.7 1.5 7.2l11.9 7.7c4.1 2.4 8.6 3.5 13.1 3.5 9.1 0 17.9-4.7 22.7-13.1L429.3 354c1.5-2.5.6-5.7-1.9-7.2h0zm15.9-191.7h-83.8c-16.2 0-28.3 5.2-40.4 17.3-2 2-2 5.4 0 7.4s5.4 2 7.4 0c10.2-10.2 19.5-14.2 33-14.2h83.8c8.7 0 15.7 7.1 15.7 15.7v83.9c0 13.5-4 22.8-14.2 33L289.2 454c-5.9 5.9-16.3 5.9-22.2 0l-96.4-96.3c-3-3-4.6-6.9-4.6-11.1s1.6-8.1 4.6-11.1L311.3 195l6.6 1.7c21.3 5.7 38.1 11.6 50.7 16.9-2.5 4.6-3.9 9.7-3.9 14.9 0 17.3 14.1 31.4 31.4 31.4s31.4-14.1 31.4-31.4-14.1-31.4-31.4-31.4c-2.9 0-5.2 2.3-5.2 5.2s2.3 5.2 5.2 5.2c11.6 0 21 9.4 21 21s-9.4 21-21 21-21-9.4-21-21c0-3.8 1-7.5 2.9-10.7 9.1 4.3 14.8 8 17 10.3-1 .3-2.4.6-4.7.8-2.9.3-5 2.8-4.8 5.7.2 2.7 2.5 4.8 5.2 4.8h.5c3.2-.3 13-1.2 14.9-8.2 5.2-19.3-70.5-40.6-85.7-44.7-23.3-6.2-45.6-10.5-62.9-12-21.3-1.9-31.6.6-33.6 7.8-.9 3.5-3.4 12.8 39.1 29.5 2.7 1.1 5.7-.3 6.8-3s-.3-5.7-3-6.8c-20.5-8.1-29-14-31.8-16.8 6.5-1.9 28.6-1.3 64.2 6.7L163.2 328c-5 5-7.7 11.5-7.7 18.5s2.7 13.6 7.7 18.5l96.3 96.3c4.9 4.9 11.5 7.7 18.5 7.7s13.6-2.7 18.5-7.7l155.6-155.9c12.1-12.1 17.3-24.2 17.3-40.4v-83.9c.1-14.2-11.7-26-26.1-26h0zm0 0" clip-path="url(#C)"/><path d="M317.2 238.6a22.99 22.99 0 0 0-16.4 6.8l-84.3 84.3a22.99 22.99 0 0 0-6.8 16.4 22.99 22.99 0 0 0 6.8 16.4l45.9 45.9a23.26 23.26 0 0 0 32.8 0l84.3-84.3a22.99 22.99 0 0 0 6.8-16.4 22.99 22.99 0 0 0-6.8-16.4l-45.9-45.9a22.99 22.99 0 0 0-16.4-6.8zm58.6 69c0 3.4-1.3 6.6-3.7 9h0l-6.2 6.2-25.2-25.2c-2-2-5.3-2-7.3 0s-2 5.3 0 7.3l25.2 25.2-70.7 70.7a12.8 12.8 0 0 1-18.1 0l-45.9-45.9c-2.4-2.4-3.7-5.6-3.7-9s1.3-6.6 3.7-9l84.3-84.3c2.4-2.4 5.6-3.7 9-3.7s6.6 1.3 9 3.7l45.9 45.9c2.4 2.5 3.7 5.7 3.7 9.1zm-54.3-26.9c-1.4 0-2.7.6-3.7 1.5-1 1-1.5 2.3-1.5 3.7s.6 2.7 1.5 3.7c1 1 2.3 1.5 3.7 1.5s2.7-.6 3.7-1.5c1-1 1.5-2.3 1.5-3.7s-.6-2.7-1.5-3.7-2.3-1.5-3.7-1.5z"/></svg>