<svg xmlns="http://www.w3.org/2000/svg" viewBox="0 0 625 625" xmlns:v="https://vecta.io/nano"><linearGradient id="A" gradientUnits="userSpaceOnUse" x1="0" y1="312.5" x2="625" y2="312.5"><stop offset="0" stop-color="#efefef"/><stop offset="1" stop-color="#dadada"/></linearGradient><circle cx="312.5" cy="312.5" r="312.5" fill="url(#A)"/><path d="M476.5 150.2h-328c-2.7 0-5 2.2-5 5v226.7c0 2.7 2.2 5 5 5h112.4v56.8h-15.1c-2.7 0-5 2.2-5 5V470c0 2.7 2.2 5 5 5h133.4c2.7 0 5-2.2 5-5v-21.3c0-2.7-2.2-5-5-5h-15.1v-56.8h64.1c2.7 0 5-2.2 5-5 0-2.7-2.2-5-5-5H153.4V160.1h318.2v216.8h-20.2c-2.7 0-5 2.2-5 5 0 2.7 2.2 5 5 5h25.2c2.7 0 5-2.2 5-5V155.1c-.1-2.7-2.3-4.9-5.1-4.9h0zM354.2 443.6h-53.5c-2.7 0-5 2.2-5 5 0 2.7 2.2 5 5 5h73.5V465H250.8v-11.4h26.8c2.7 0 5-2.2 5-5 0-2.7-2.2-5-5-5h-6.8v-56.8h83.5v56.8zM189.6 170.2h-21.1c-2.7 0-5 2.2-5 5v186.7c0 2.7 2.2 5 5 5h288.1c2.7 0 5-2.2 5-5V175.1c0-2.7-2.2-5-5-5H212.7c-2.7 0-5 2.2-5 5 0 2.7 2.2 5 5 5h238.9v176.8H173.4V180.1h16.1c2.7 0 5-2.2 5-5a4.91 4.91 0 0 0-4.9-4.9h0zm0 0"/><path d="M219.3 197.9v141.4c0 2 1.6 3.7 3.7 3.7h181.2c2 0 3.7-1.6 3.7-3.7V197.9c0-2-1.6-3.7-3.7-3.7H289.1c-2 0-3.7 1.6-3.7 3.7 0 2 1.6 3.7 3.7 3.7H310v39c-13.9 1.8-24.6 13.6-24.6 27.9s10.7 26.2 24.6 27.9v39.1h-83.3v-17.3h28.4c2 0 3.7-1.6 3.7-3.7v-24.4c7.9-4.3 12.9-12.5 12.9-21.7s-5-17.4-12.9-21.7v-24.3c0-2-1.6-3.7-3.7-3.7h-28.4v-17.3h30.9c2 0 3.7-1.6 3.7-3.7 0-2-1.6-3.7-3.7-3.7H223c-2.1.3-3.7 1.9-3.7 3.9zm156.4 51.3v-22.9h24.7v15.6h-12.3c-2 0-3.7 1.6-3.7 3.7v46c0 2 1.6 3.7 3.7 3.7h12.3v15.6h-24.7v-61.7zm-7.4 32.1c-3.5-3.2-5.6-7.8-5.6-12.7 0-5 2.1-9.5 5.6-12.7v25.4zm32.1-32V288h-8.7v-38.7h8.7zm-107.7 19.3c0-10.3 7.5-18.8 17.2-20.5v41c-9.7-1.7-17.2-10.3-17.2-20.5zm24.6-20.5c9.7 1.8 17 10.3 17 20.5s-7.4 18.7-17 20.5v-41zm0 48.4c13.8-1.9 24.4-13.7 24.4-27.9 0-14.3-10.6-26.1-24.4-27.9v-39h83.2V219h-28.4c-2 0-3.7 1.6-3.7 3.7V247c-7.9 4.3-12.9 12.5-12.9 21.7s5 17.4 12.9 21.7v24.4c0 2 1.6 3.7 3.7 3.7h28.4v17.3h-83.2v-39.3zm-53-27.9c0 4.9-2.1 9.5-5.6 12.7v-25.5c3.5 3.3 5.6 7.8 5.6 12.8zm-13-42.3V311h-24.7v-15.6H239c2 0 3.7-1.6 3.7-3.7v-11.1c0-2-1.6-3.7-3.7-3.7s-3.7 1.6-3.7 3.7v7.4h-8.7v-38.7h8.7v7.4c0 2 1.6 3.7 3.7 3.7 2 0 3.7-1.6 3.7-3.7v-11.1c0-2-1.6-3.7-3.7-3.7h-12.4v-15.6h24.7z"/></svg>