<svg xmlns="http://www.w3.org/2000/svg" viewBox="0 0 625 625" xmlns:v="https://vecta.io/nano"><circle cx="312.5" cy="312.5" r="312.5" fill="#fff"/><linearGradient id="A" gradientUnits="userSpaceOnUse" x1="0" y1="312.5" x2="625" y2="312.5"><stop offset="0" stop-color="#efefef"/><stop offset="1" stop-color="#dadada"/></linearGradient><circle cx="312.5" cy="312.5" r="312.5" fill="url(#A)"/><path d="M534 238.3l-86.7-86.7a7.12 7.12 0 0 0-10.1 0L393.8 195c-1.3 1.3-2.1 3.2-2.1 5 0 1.9.8 3.7 2.1 5l4.3 4.3-9.9 9.9c-6.5 6.4-16.5 8.2-24.9 4.4-7.9-3.6-16.7-5.5-25.5-5.5-10.4 0-20.5 2.6-29.5 7.5-3.8-.9-7.6-1.4-11.5-1.4-5.6 0-11.2 1-16.4 2.9-8.4 3.1-17.5 1.2-23.6-5L239 204.3l2.1-2.1c1.3-1.3 2.1-3.2 2.1-5 0-1.9-.8-3.7-2.1-5l-43.4-43.4a7.12 7.12 0 0 0-10.1 0L91 245.4a7.12 7.12 0 0 0 0 10.1l43.4 43.4c1.3 1.3 3.2 2.1 5 2.1 1.9 0 3.7-.8 5-2.1l2.6-2.6 12.6 12.6c3.2 3.2 5.3 7.1 6.1 11.5 4.2 22.4 14.9 42.8 31.1 59l2.4 2.4a25.29 25.29 0 0 0-7.1 17.7c0 6.9 2.7 13.3 7.5 18.2 5 5 11.6 7.5 18.2 7.5h1.3c-.3 7 2.1 14.1 7.5 19.5 4.9 4.9 11.3 7.5 18.2 7.5h.6c-.1 6.8 2.3 13.6 7.5 18.7 4.9 4.9 11.3 7.5 18.2 7.5s13.3-2.7 18.2-7.5c.4-.4.8-.8 1.2-1.3 2.5.9 5.2 1.4 7.9 1.4 6.4 0 12.5-2.5 17-7 2.4-2.4 4.2-5.2 5.4-8.3l.7.7c4.7 4.7 10.8 7 17 7 6.1 0 12.3-2.3 17-7 2.5-2.5 4.4-5.4 5.5-8.6 4.2 3 9.1 4.6 14.1 4.6 6.1 0 12.3-2.3 17-7 4.5-4.5 7-10.6 7-17 0-1.9-.2-3.8-.7-5.7 4.6-.9 8.8-3.2 12.1-6.6 4.5-4.5 7-10.6 7-17 0-5.1-1.6-9.9-4.4-13.9l5.7-5.7c16.3-16.3 27.1-37 31.2-59.7.7-3.8 2.6-7.3 5.5-10.2l21.3-21.3 3.7 3.7c1.4 1.4 3.2 2.1 5 2.1s3.7-.7 5-2.1l43.4-43.4c1.3-1.3 2.1-3.2 2.1-5 0-2.1-.7-3.9-2-5.3zm-394.6 45.4l-33.3-33.3 86.4-86.4 33.3 33.3-86.4 86.4zm86.5 123.7c-4.5 4.4-11.7 4.5-16.1 0-2.2-2.2-3.3-5-3.3-8.1 0-3 1.2-5.9 3.3-8.1 2.2-2.2 5.1-3.3 8.1-3.3 2.9 0 5.8 1.1 8.1 3.3 4.4 4.5 4.4 11.8-.1 16.2zm26.9 26.9c-2.2 2.2-5 3.3-8.1 3.3-3 0-5.9-1.2-8.1-3.3-4.5-4.5-4.5-11.7 0-16.1 2.2-2.2 5.1-3.3 8.1-3.3 2.9 0 5.8 1.1 8.1 3.3 4.5 4.4 4.5 11.7 0 16.1zm26.3 26.3c-2.2 2.2-5 3.3-8.1 3.3s-5.9-1.2-8.1-3.3c-4.5-4.5-4.5-11.7 0-16.1 2.2-2.2 5.1-3.3 8.1-3.3 2.9 0 5.8 1.1 8.1 3.3 4.4 4.4 4.4 11.6 0 16.1zm121.3-54.8c-1.8 1.8-4.3 2.8-6.9 2.8s-5-1-6.9-2.9l-69.3-69.3a7.12 7.12 0 1 0-10.1 10.1l74.6 74.6c1.8 1.8 2.8 4.3 2.8 6.9s-1 5-2.8 6.9a9.78 9.78 0 0 1-13.8 0l-70.8-70.8a7.12 7.12 0 1 0-10.1 10.1l58.1 58.1c1.8 1.8 2.8 4.2 2.8 6.8s-1 5-2.8 6.9c-3.8 3.8-10 3.8-13.7 0l-62.9-62.9a7.12 7.12 0 1 0-10.1 10.1l46.7 46.7c1.8 1.8 2.8 4.3 2.8 6.9s-1 5-2.9 6.9c-1.8 1.8-4.3 2.8-6.9 2.8-.6 0-1.2-.1-1.8-.2 1.2-7.8-1.3-16-7.2-22-4.9-4.9-11.3-7.5-18.2-7.5h-.6c.1-6.8-2.3-13.6-7.5-18.7-4.9-4.9-11.3-7.5-18.2-7.5h-1.3c.3-7-2.2-14.1-7.5-19.4-6.5-6.5-15.6-8.8-24-6.9l-5.1-5.1c-14.1-14.1-23.5-31.9-27.1-51.5-1.3-7.2-4.8-13.7-10-18.9l-12.6-12.6 71.6-71.6 17.8 17.8c6.9 6.9 16.2 10.5 25.8 10.5 4.3 0 8.6-.7 12.8-2.3 2-.7 4.1-1.3 6.2-1.6l-44.2 44.2a28.51 28.51 0 0 0-8.4 20.3c0 7.6 3 14.8 8.4 20.3 5.6 5.6 12.9 8.4 20.3 8.4 7.3 0 14.7-2.8 20.3-8.4l22.2-22.2 90.3 90.3c1.8 1.8 2.8 4.3 2.8 6.9.2 2.7-.8 5.1-2.6 7zm44.9-106.5c-5 5-8.2 11.1-9.4 17.8-3.6 19.8-13 37.9-27.2 52.1l-5.5 5.5-45.2-45.2c1 .1 2 .1 3 .1 4.6 0 9.3-.8 13.9-2.7a7.1 7.1 0 0 0 3.9-9.3c-1.5-3.6-5.7-5.4-9.3-3.9-18.4 7.5-40.4-13.2-42.9-15.6l-6.6-6.6 6.8-6.8a7.12 7.12 0 1 0-10.1-10.1l-39 39c-5.6 5.6-14.7 5.6-20.3 0-2.7-2.7-4.2-6.3-4.2-10.2s1.5-7.4 4.2-10.2l47-47c2.6-2.6 5.5-4.9 8.6-6.8 7.4-4.6 16-7 24.8-7 6.7 0 13.5 1.5 19.6 4.2 13.8 6.3 30.3 3.4 40.9-7.3l9.9-9.9 58.4 58.4-21.3 21.5zm40.2-22.7L408.9 200l33.3-33.3 76.6 76.6-33.3 33.3z"/><circle cx="492.7" cy="248.8" r="7.1"/><circle cx="135.7" cy="255.9" r="7.1"/></svg>