<svg xmlns="http://www.w3.org/2000/svg" viewBox="0 0 625 625" xmlns:v="https://vecta.io/nano"><linearGradient id="A" gradientUnits="userSpaceOnUse" x1="0" y1="312.5" x2="625" y2="312.5"><stop offset="0" stop-color="#efefef"/><stop offset="1" stop-color="#dadada"/></linearGradient><circle cx="312.5" cy="312.5" r="312.5" fill="url(#A)"/><path d="M173.4 184.5h72.4v10.7h-72.4zm0 21.3h72.4v10.7h-72.4zm0 21.4h50.1v10.7h-50.1zm0 21.3h50.1v10.7h-50.1zm-27.9 213.3h333.9v10.7H145.5zm322.3-263.7l-22.3-42.7c-1.4-2.6-4.7-3.7-7.5-2.4l-44.5 21.3c-2.8 1.3-3.9 4.5-2.5 7.2s4.7 3.7 7.5 2.4l32.2-15.4-8.8 24.1c-38.7 105.5-138.3 179.6-254.6 189.3l.9 10.7c120.7-10 224.1-86.9 264.2-196.4l9-24.6 16.4 31.4c1.4 2.6 4.7 3.7 7.5 2.4 2.7-1.4 3.8-4.6 2.5-7.3zM212.3 408.5h-39c-3.1 0-5.6 2.4-5.6 5.3v32c0 2.9 2.5 5.3 5.6 5.3h39c3.1 0 5.6-2.4 5.6-5.3v-32c0-2.9-2.5-5.3-5.6-5.3zm-5.6 32h-27.8v-21.3h27.8v21.3zm66.8-48h-39c-3.1 0-5.6 2.4-5.6 5.3v48c0 2.9 2.5 5.3 5.6 5.3h39c3.1 0 5.6-2.4 5.6-5.3v-48c0-2.9-2.5-5.3-5.6-5.3zm-5.5 48h-27.8v-37.3H268v37.3zm66.8-74.7h-39c-3.1 0-5.6 2.4-5.6 5.3v74.7c0 2.9 2.5 5.3 5.6 5.3h39c3.1 0 5.6-2.4 5.6-5.3v-74.7c-.1-2.9-2.6-5.3-5.6-5.3zm-5.6 74.7h-27.8v-64h27.8v64zm66.8-112h-39c-3.1 0-5.6 2.4-5.6 5.3v112c0 2.9 2.5 5.3 5.6 5.3h39c3.1 0 5.6-2.4 5.6-5.3v-112c0-2.9-2.5-5.3-5.6-5.3zm-5.6 112h-27.8V339.2h27.8v101.3zm66.8-186.7h-39c-3.1 0-5.6 2.4-5.6 5.3v186.7c0 2.9 2.5 5.3 5.6 5.3h39c3.1 0 5.6-2.4 5.6-5.3V259.2c0-3-2.5-5.4-5.6-5.4zm-5.6 186.7h-27.8v-176h27.8v176z"/></svg>