<svg xmlns="http://www.w3.org/2000/svg" xmlns:xlink="http://www.w3.org/1999/xlink" viewBox="0 0 625 625" xmlns:v="https://vecta.io/nano"><linearGradient id="A" gradientUnits="userSpaceOnUse" x1="0" y1="312.5" x2="625" y2="312.5"><stop offset="0" stop-color="#efefef"/><stop offset="1" stop-color="#dadada"/></linearGradient><circle cx="312.5" cy="312.5" r="312.5" fill="url(#A)"/><path d="M472.7 389c-4.7-12.9-18.9-19.5-31.8-14.8l-38.7 14.1c-3.6-6.9-10.1-11.8-17.8-13.1l-84.4-15c-1.1-.2-2.2-.1-3.2.3l-40.5 14.8-2.1-5.8c-1.2-3.2-4.7-4.9-7.9-3.7l-46.7 17c-3.2 1.2-4.9 4.7-3.7 7.9h0l-40.8 14.9c-3.2 1.2-4.9 4.7-3.7 7.9l29.8 81.7c1.2 3.2 4.7 4.9 7.9 3.7l40.8-14.9c1.2 3.2 4.7 4.9 7.9 3.7l46.7-17c3.2-1.2 4.9-4.7 3.7-8l-2.1-5.8 3.8-1.4 35.6 12c1.3.4 2.8.4 4.1 0l17.5-6.4 110.8-40.4c12.8-4.6 19.4-18.8 14.8-31.7zm-247.2 83.3l-35 12.7-25.5-70 35-12.7 25.5 70zm13.8 1.6l-29.7-81.7 35-12.7 29.7 81.7-35 12.7zm221.3-71.2c-1.4 3-3.9 5.3-7 6.4L327.3 455l-35.6-12c-1.3-.5-2.8-.4-4.1 0l-5.8 2.1-21.2-58.4 39-14.2 82.7 14.6c4.4.7 8 3.8 9.5 8 .2.5.3 1 .4 1.6 0 .2.1.4.1.6a9.91 9.91 0 0 1 0 4.2c-1.2 6.8-7.6 11.3-14.4 10.1L308 399.5l-2.2 12.2 69.9 12.3c13.5 2.3 26.4-6.7 28.8-20.2.2-1.1.2-2.2.3-3.3l40.3-14.7c6.4-2.4 13.6.9 15.9 7.4 1.2 3.1 1 6.5-.4 9.5h0zM249.3 262.3l24.2 3.5c1.2 3.4 2.5 6.7 4.1 9.9L263 295.2c-1.8 2.5-1.6 5.9.6 8.1l26.3 26.3c2.2 2.2 5.6 2.4 8.1.6l19.6-14.7c3.2 1.6 6.5 2.9 9.9 4.1l3.5 24.3c.4 3.1 3.1 5.3 6.1 5.3h37.2c3.1 0 5.7-2.3 6.1-5.3l3.5-24.3c3.4-1.2 6.7-2.5 9.9-4.1l19.6 14.7c2.5 1.9 5.9 1.6 8.1-.6l26.3-26.3c2.2-2.2 2.4-5.6.6-8.1l-14.7-19.6c1.6-3.2 2.9-6.5 4.1-9.9l24.2-3.5c3.1-.4 5.3-3.1 5.3-6.1v-37.2c0-3.1-2.3-5.7-5.3-6.1l-24.2-3.5c-1.2-3.4-2.5-6.7-4.1-9.9l14.7-19.6c1.8-2.5 1.6-5.9-.6-8.1l-26.3-26.3c-2.2-2.2-5.6-2.4-8.1-.6l-19.6 14.7c-3.2-1.6-6.5-2.9-9.9-4.1l-3.5-24.3c-.4-3.1-3.1-5.3-6.1-5.3h-37.2c-3.1 0-5.7 2.3-6.1 5.3l-3.5 24.3c-3.4 1.2-6.7 2.5-9.9 4.1L298 144.7c-2.5-1.9-5.9-1.6-8.1.6l-26.3 26.3c-2.2 2.2-2.4 5.6-.6 8.1l14.7 19.6c-1.6 3.2-2.9 6.5-4.1 9.9l-24.2 3.5c-3.1.4-5.3 3-5.3 6.1V256c-.1 3.2 2.2 5.8 5.2 6.3zm7.1-38l22.8-3.2c2.4-.3 4.4-2.1 5.1-4.4 1.5-5.2 3.6-10.2 6.1-14.9a6.07 6.07 0 0 0-.5-6.7l-13.8-18.4 18.7-18.7 18.4 13.8c1.9 1.5 4.6 1.6 6.7.5 4.7-2.6 9.7-4.6 14.9-6.1 2.3-.7 4.1-2.7 4.4-5.1l3.2-22.8H369l3.3 22.8c.3 2.4 2.1 4.4 4.4 5.1 5.2 1.5 10.2 3.5 14.9 6.1 2.1 1.2 4.7 1 6.7-.5l18.4-13.8 18.7 18.7-13.8 18.3c-1.5 1.9-1.6 4.6-.5 6.7 2.6 4.7 4.6 9.7 6.1 14.9.7 2.3 2.7 4.1 5.1 4.4l22.8 3.2v26.5l-22.8 3.2c-2.4.3-4.4 2.1-5.1 4.4-1.5 5.2-3.5 10.2-6.1 14.9a6.07 6.07 0 0 0 .5 6.7l13.8 18.4-18.7 18.7-18.4-13.8c-1.9-1.5-4.6-1.6-6.7-.5-4.7 2.6-9.7 4.6-14.9 6.1-2.3.7-4.1 2.7-4.4 5.1l-3.2 22.8h-26.5l-3.3-22.8c-.3-2.4-2.1-4.4-4.4-5.1-5.2-1.5-10.2-3.5-14.9-6.1a6.07 6.07 0 0 0-6.7.5L294.9 317l-18.7-18.7 13.8-18.4c1.5-1.9 1.6-4.6.5-6.7-2.6-4.7-4.6-9.7-6.1-14.9-.7-2.3-2.7-4.1-5.1-4.4l-22.8-3.2v-26.4zm93.1-73.7h12.4V163h-12.4z"/><use xlink:href="#C"/><use xlink:href="#C" x="0.043" y="114.178"/><path d="M349.5 312h12.4v12.4h-12.4z"/><use xlink:href="#C" x="114.15" y="114.201"/><use xlink:href="#C" x="114.105" y="0.023"/><path d="M355.7 287.2c27.4 0 49.7-22.2 49.7-49.7s-22.2-49.7-49.7-49.7c-27.4 0-49.7 22.2-49.7 49.7.1 27.4 22.3 49.6 49.7 49.7zm0-86.9c20.6 0 37.2 16.7 37.2 37.2s-16.7 37.2-37.2 37.2-37.2-16.7-37.2-37.2c0-20.6 16.7-37.2 37.2-37.2zm-86.9 31h12.4v12.4h-12.4zm161.4 0h12.4v12.4h-12.4z"/><defs ><path id="C" d="M289.9 180.397l8.768-8.768 8.768 8.768-8.768 8.768z"/></defs></svg>