<svg xmlns="http://www.w3.org/2000/svg" xmlns:xlink="http://www.w3.org/1999/xlink" viewBox="0 0 625 625" xmlns:v="https://vecta.io/nano"><linearGradient id="A" gradientUnits="userSpaceOnUse" x1="0" y1="312.5" x2="625" y2="312.5"><stop offset="0" stop-color="#efefef"/><stop offset="1" stop-color="#dadada"/></linearGradient><circle cx="312.5" cy="312.5" r="312.5" fill="url(#A)"/><defs><path id="B" d="M276.7 173.4h182.6v269.8H276.7z"/></defs><clipPath id="C"><use xlink:href="#B"/></clipPath><path d="M459.1 350.2c-.4-2.1-2.2-3.8-4.3-4.2-2.2-.4-4.4.8-5.5 2.7-1 1.9-.7 4.3.7 6 1.5 1.7 3.9 2.3 6 1.4 2.3-1 3.6-3.5 3.1-5.9h0zm0 0" clip-path="url(#C)"/><path d="M452.2 370c-2.8-.8-5.7.9-6.5 3.7-9.7 34.7-41.7 58.9-77.7 58.9-44.5 0-80.7-36.2-80.7-80.7 0-36.4 24.2-67.6 60.2-77.4 2.3-.6 3.9-2.7 3.9-5.1V246h33.3v23.4c0 2.4 1.6 4.5 3.9 5.1 27.6 7.6 48.8 27.9 56.8 54.4.8 2.8 3.8 4.4 6.6 3.5 2.8-.8 4.4-3.8 3.5-6.6-8.6-28.7-31-51-60.2-60.4V246H408a5.34 5.34 0 0 0 5.3-5.3v-26a5.34 5.34 0 0 0-5.3-5.3h-12l4.4-30c.2-1.5-.2-3.1-1.2-4.2-1-1.2-2.5-1.8-4-1.8h-54.5c-1.5 0-3 .7-4 1.8-1 1.2-1.4 2.7-1.2 4.2l4.4 30H328a5.34 5.34 0 0 0-5.3 5.3v26a5.34 5.34 0 0 0 5.3 5.3h12.8v19.5c-38.5 12.3-64 46.5-64 86.5 0 50.3 40.9 91.2 91.2 91.2 20.3 0 39.6-6.5 55.6-18.9 15.6-12 27-28.9 32.3-47.7a5.36 5.36 0 0 0-3.7-6.6h0zM346.8 183.9h42.3l-3.7 25.5h-34.8l-3.8-25.5zM333.3 220h69.4v15.5h-69.4V220zm31 88.3c0-9-7.3-16.3-16.3-16.3s-16.3 7.3-16.3 16.3 7.3 16.3 16.3 16.3c9-.1 16.3-7.4 16.3-16.3h0zm-22 0c0-3.2 2.6-5.7 5.7-5.7 3.2 0 5.7 2.6 5.7 5.7s-2.6 5.7-5.7 5.7-5.7-2.6-5.7-5.7h0zm0 0"/><path d="M300.9 341.4c-.5 3.5-.8 7-.8 10.6 0 37.5 30.5 67.9 67.9 67.9s67.9-30.5 67.9-67.9c0-3.5-.3-7.1-.8-10.6-.4-2.6-2.6-4.5-5.2-4.5H422v-1.2c0-12.8-10.4-23.2-23.2-23.2s-23.2 10.4-23.2 23.2v1.2h-69.7c-2.4 0-4.6 1.9-5 4.5h0zm9.9 6.1h71.4c1.7 0 3.4-.9 4.3-2.3 1-1.4 1.2-3.3.6-4.9-.6-1.4-.8-3-.8-4.5 0-7 5.7-12.6 12.6-12.6s12.6 5.7 12.6 12.6a13.3 13.3 0 0 1-.8 4.5c-.6 1.6-.4 3.4.6 4.9 1 1.4 2.6 2.3 4.3 2.3h9.6c.1 1.5.2 3 .2 4.5 0 31.6-25.7 57.4-57.4 57.4s-57.4-25.7-57.4-57.4c0-1.6 0-3.1.2-4.5h0zm-67-130.7c0-7.2-5.8-13-13-13h-52.1c-7.2 0-13 5.8-13 13 0 5.6 3.6 10.4 8.6 12.2v189.3c0 16.8 13.7 30.4 30.4 30.4 16.8 0 30.4-13.7 30.4-30.4V229c5.1-1.8 8.7-6.6 8.7-12.2h0zm-65.1-3.7h52.1a3.76 3.76 0 0 1 3.7 3.7 3.76 3.76 0 0 1-3.7 3.7h-52.1a3.76 3.76 0 0 1-3.7-3.7 3.76 3.76 0 0 1 3.7-3.7h0zm26 52.3c-4.2 0-13.8.3-21.1 2.6v-38.2h42.2V268c-7.3-2.3-16.9-2.6-21.1-2.6h0zm18 11.4c-3.6 1.1-9.8 2.1-18 2.1s-14.4-1-18-2.1c3.6-1.1 9.8-2.1 18-2.1 8.3 0 14.4 1 18 2.1h0zm-18 162.7c-11.6 0-21.1-9.5-21.1-21.1V285.6c7.3 2.3 17 2.6 21.1 2.6 4.2 0 13.8-.3 21.1-2.6v22.1H206c-2.6 0-4.7 2.1-4.7 4.7s2.1 4.7 4.7 4.7h19.8v4.6h-6.7c-2.6 0-4.7 2.1-4.7 4.7s2.1 4.7 4.7 4.7h6.7v4.6H206c-2.6 0-4.7 2.1-4.7 4.7s2.1 4.7 4.7 4.7h19.8v4.6h-6.7c-2.6 0-4.7 2.1-4.7 4.7s2.1 4.7 4.7 4.7h6.7v4.6H206c-2.6 0-4.7 2.1-4.7 4.7s2.1 4.7 4.7 4.7h19.8v4.6h-6.7c-2.6 0-4.7 2.1-4.7 4.7s2.1 4.7 4.7 4.7h6.7v4.6H206c-2.6 0-4.7 2.1-4.7 4.7s2.1 4.7 4.7 4.7h19.8V419c.1 11-9.4 20.5-21.1 20.5h0zm-9.6-278.3c6.3 0 11.5-5.1 11.5-11.5s-5.1-11.5-11.5-11.5-11.5 5.1-11.5 11.5c0 6.3 5.2 11.5 11.5 11.5h0zm0-15.5c2.2 0 4 1.8 4 4s-1.8 4-4 4-4-1.8-4-4 1.8-4 4-4h0zm0 44c6.3 0 11.5-5.1 11.5-11.5 0-6.3-5.1-11.5-11.5-11.5s-11.5 5.1-11.5 11.5c0 6.3 5.2 11.5 11.5 11.5h0zm0-15.5c2.2 0 4 1.8 4 4s-1.8 4-4 4-4-1.8-4-4 1.8-4 4-4h0zm25.8 1.2c6.3 0 11.5-5.1 11.5-11.5 0-6.3-5.1-11.5-11.5-11.5-6.3 0-11.5 5.1-11.5 11.5.1 6.4 5.2 11.5 11.5 11.5h0zm0-15.4c2.2 0 4 1.8 4 4s-1.8 4-4 4-4-1.8-4-4c.1-2.2 1.8-4 4-4h0zm0 0"/></svg>